<svg width="1024" xmlns="http://www.w3.org/2000/svg" height="1024" id="screenshot-9ea07b0b-e8cf-80e2-8007-01e22a62fc41" viewBox="0 0 1024 1024" xmlns:xlink="http://www.w3.org/1999/xlink" fill="none" version="1.1"><g id="shape-9ea07b0b-e8cf-80e2-8007-01e22a62fc41" width="1024" height="1024" rx="0" ry="0" style="fill: rgb(0, 0, 0);"><g id="shape-9ea07b0b-e8cf-80e2-8007-01e22a64dbcd" style="display: none;"><g class="fills" id="fills-9ea07b0b-e8cf-80e2-8007-01e22a64dbcd"><rect width="1024" height="1024" x="0" transform="matrix(1.000000, 0.000000, 0.000000, 1.000000, 0.000000, 0.000000)" style="fill: none;" ry="0" fill="none" rx="0" y="0"/></g></g><g id="shape-9ea07b0b-e8cf-80e2-8007-01e22a653bcf"><g class="fills" id="fills-9ea07b0b-e8cf-80e2-8007-01e22a653bcf"><path d="M0,0C337.9200439453125,0,675.8400268554688,0,1024,0C1024,337.9200134277344,1024,675.8400268554688,1024,1024C686.0800170898438,1024,348.1600341796875,1024,0,1024C0,686.0800170898438,0,348.1600036621094,0,0L0,0" style="fill: rgb(254, 253, 250); fill-opacity: 0;"/></g></g><g id="shape-9ea07b0b-e8cf-80e2-8007-01e22a662404"><g class="fills" id="fills-9ea07b0b-e8cf-80e2-8007-01e22a662404"><path d="M377,292C377.7646484375,292.1068420410156,378.5291748046875,292.2136535644531,379.31689453125,292.32373046875C414.7054443359375,297.3509216308594,449.3214111328125,309.8930969238281,482,324C483.33349609375,324.57550048828125,483.33349609375,324.57550048828125,484.69384765625,325.16259765625C498.98028564453125,331.3778076171875,512.97509765625,338.2212829589844,527,345C527,356.54998779296875,527,368.1000061035156,527,380C519.150634765625,376.08404541015625,511.30523681640625,372.1635437011719,503.4921875,368.17578125C480.114501953125,356.2743835449219,456.4342041015625,344.8774719238281,431.4248046875,336.787109375C428.83111572265625,335.9451904296875,426.2479248046875,335.07464599609375,423.6640625,334.203125C410.93603515625,329.96533203125,398.1611328125,326.59075927734375,385,324C383.548095703125,323.70367431640625,383.548095703125,323.70367431640625,382.06689453125,323.4013671875C352.1319580078125,317.448486328125,316.7735595703125,314.9298400878906,290,332C278.285400390625,340.40496826171875,271.3890380859375,351.8073425292969,269,366C267.698974609375,378.7655029296875,269.49072265625,390.74200439453125,273,403C273.2254638671875,403.8009948730469,273.450927734375,404.60198974609375,273.68310546875,405.42724609375C287.2408447265625,452.3778076171875,318.81494140625,493.18499755859375,351.625,528.51171875C353.00927734375,530.010009765625,354.38134765625,531.5186767578125,355.75,533.03125C363.8062744140625,541.9238891601562,372.033935546875,550.5899047851562,381.171875,558.390625C383.0294189453125,560.02587890625,384.76611328125,561.73486328125,386.5,563.5C390.1630859375,567.212158203125,394.048583984375,570.599609375,398,574C399.0826416015625,574.9459228515625,400.16461181640625,575.892578125,401.24609375,576.83984375C415.41357421875,589.226318359375,429.91119384765625,601.1254272460938,444.9443359375,612.447265625C446.920654296875,613.9400634765625,448.8870849609375,615.44482421875,450.8515625,616.953125C515.8399047851562,666.611572265625,592.7177124023438,710.0022583007812,674,724C674.7523193359375,724.1328125,675.504638671875,724.2655029296875,676.27978515625,724.40234375C705.2294921875,729.3065185546875,739.9510498046875,728.2550048828125,764.875,711.1875C776.5125732421875,702.1474609375,784.8927001953125,689.8212890625,787,675C788.90966796875,649.5146484375,780.8887329101562,627.1300659179688,769,605C768.609130859375,604.2636108398438,768.2181396484375,603.5272216796875,767.8154296875,602.7685546875C762.8302001953125,593.4118041992188,757.60107421875,584.3961181640625,751.33251953125,575.82421875C749.7913818359375,573.7144775390625,748.2697143554688,571.5911865234375,746.74609375,569.46875C739.591552734375,559.5686645507812,732.1041259765625,550.1353149414062,724,541C722.770263671875,539.5838623046875,721.541015625,538.167236328125,720.3125,536.75C719.2105102539062,535.4981079101562,718.1063232421875,534.2481079101562,717,533C716.3748168945312,532.2935791015625,715.7496337890625,531.587158203125,715.10546875,530.859375C704.7474365234375,519.2522583007812,694.1002197265625,507.90045166015625,683,497C681.9989013671875,496.0010986328125,680.9984130859375,495.0015869140625,680,494C681.5137939453125,490.432373046875,683.6051025390625,488.1629638671875,686.3515625,485.453125C687.2023315429688,484.6087646484375,688.0531005859375,483.76446533203125,688.9296875,482.89453125C689.8191528320312,482.0218505859375,690.7086181640625,481.149169921875,691.625,480.25C692.522216796875,479.36181640625,693.4193725585938,478.47369384765625,694.34375,477.55859375C696.55810546875,475.3677978515625,698.7769165039062,473.181884765625,701,471C707.001708984375,475.93963623046875,712.4913330078125,481.33807373046875,717.97021484375,486.83984375C719.493408203125,488.36834716796875,721.021728515625,489.89141845703125,722.55078125,491.4140625C727.3779296875,496.23797607421875,732.102294921875,501.1087646484375,736.5419921875,506.296875C738.5921630859375,508.6917724609375,740.7359619140625,510.99700927734375,742.875,513.3125C747.31787109375,518.1956176757812,751.5758056640625,523.1836547851562,755.68505859375,528.3505859375C756.6184692382812,529.5214233398438,757.5568237304688,530.6883544921875,758.49853515625,531.8525390625C784.783447265625,564.3927001953125,807.1116943359375,600.7205810546875,819,641C819.3828125,642.2529296875,819.7657470703125,643.5059814453125,820.16015625,644.796875C826.4775390625,669.8311767578125,822.447265625,695.8181762695312,810,718C809.48046875,718.9297485351562,808.9610595703125,719.8594970703125,808.42578125,720.8173828125C801.5775146484375,732.989990234375,794.609375,744.9808959960938,786,756C785.5067749023438,756.633056640625,785.0135498046875,757.2661743164062,784.50537109375,757.91845703125C773.8736572265625,771.46728515625,762.2222900390625,783.859130859375,750.1024169921875,796.07177734375C749.009765625,797.1731567382812,747.91845703125,798.27587890625,746.8287353515625,799.380126953125C739.8873291015625,806.4025268554688,732.7387084960938,812.8461303710938,725,819C723.9099731445312,819.9231567382812,722.8253173828125,820.852783203125,721.75,821.79296875C703.7025146484375,837.5076293945312,683.7387084960938,851.093994140625,663,863C661.795654296875,863.6924438476562,661.795654296875,863.6924438476562,660.56689453125,864.39892578125C582.2466430664062,909.0796508789062,493.33575439453125,914.3497924804688,341.69873046875,886.72021484375C335.7127685546875,885.3168334960938,329.70068359375,884.2252197265625,323.64208984375,883.182861328125C312.421142578125,881.2382202148438,302.21533203125,879.1458129882812,292,874C290.963623046875,873.4882202148438,289.92724609375,872.9765014648438,288.859375,872.44921875C262.688232421875,858.390625,249.16455078125,831.7625122070312,238.261962890625,805.4112548828125C234.220703125,795.6597290039062,229.7828369140625,786.1779174804688,225.0772705078125,776.7313232421875C216.13134765625,758.7327880859375,207.6839599609375,740.5729370117188,200,722C199.55712890625,720.9300537109375,199.55712890625,720.9300537109375,199.10546875,719.8385009765625C182.72802734375,680.12646484375,171.61328125,639.8271484375,167,597C166.8431396484375,595.55126953125,166.8431396484375,595.55126953125,166.68310546875,594.0732421875C161.903564453125,542.2415161132812,167.7442626953125,489.37908935546875,184,440C184.2884521484375,439.104736328125,184.576904296875,438.20947265625,184.8740234375,437.287109375C196.43310546875,401.5982666015625,213.96923828125,367.92718505859375,236.515625,337.97216796875C237.9283447265625,336.0952453613281,239.32470703125,334.2071533203125,240.71875,332.31640625C258.5347900390625,308.3638610839844,284.030517578125,294.66259765625,313.321533203125,289.82470703125C334.405517578125,286.93731689453125,356.0634765625,288.9113464355469,377,292Z" style="fill: rgb(181, 115, 64);"/></g></g><g id="shape-9ea07b0b-e8cf-80e2-8007-01e22a67d3e2"><g class="fills" id="fills-9ea07b0b-e8cf-80e2-8007-01e22a67d3e2"><path d="M377,292C377.7646484375,292.1068420410156,378.5291748046875,292.2136535644531,379.31689453125,292.32373046875C414.7054443359375,297.3509216308594,449.3214111328125,309.8930969238281,482,324C483.33349609375,324.57550048828125,483.33349609375,324.57550048828125,484.69384765625,325.16259765625C498.98028564453125,331.3778076171875,512.97509765625,338.2212829589844,527,345C527,356.54998779296875,527,368.1000061035156,527,380C519.150634765625,376.08404541015625,511.30523681640625,372.1635437011719,503.4921875,368.17578125C480.114501953125,356.2743835449219,456.4342041015625,344.8774719238281,431.4248046875,336.787109375C428.83111572265625,335.9451904296875,426.2479248046875,335.07464599609375,423.6640625,334.203125C410.93603515625,329.96533203125,398.1611328125,326.59075927734375,385,324C383.548095703125,323.70367431640625,383.548095703125,323.70367431640625,382.06689453125,323.4013671875C352.1319580078125,317.448486328125,316.7735595703125,314.9298400878906,290,332C278.285400390625,340.40496826171875,271.3890380859375,351.8073425292969,269,366C267.698974609375,378.7655029296875,269.49072265625,390.74200439453125,273,403C273.2254638671875,403.8009948730469,273.450927734375,404.60198974609375,273.68310546875,405.42724609375C287.2408447265625,452.3778076171875,318.81494140625,493.18499755859375,351.625,528.51171875C353.00927734375,530.010009765625,354.38134765625,531.5186767578125,355.75,533.03125C363.8062744140625,541.9238891601562,372.033935546875,550.5899047851562,381.171875,558.390625C383.0294189453125,560.02587890625,384.76611328125,561.73486328125,386.5,563.5C390.1630859375,567.212158203125,394.048583984375,570.599609375,398,574C399.0826416015625,574.9459228515625,400.16461181640625,575.892578125,401.24609375,576.83984375C415.41357421875,589.226318359375,429.91119384765625,601.1254272460938,444.9443359375,612.447265625C446.920654296875,613.9400634765625,448.8870849609375,615.44482421875,450.8515625,616.953125C515.8399047851562,666.611572265625,592.7177124023438,710.0022583007812,674,724C674.7523193359375,724.1328125,675.504638671875,724.2655029296875,676.27978515625,724.40234375C705.2294921875,729.3065185546875,739.9510498046875,728.2550048828125,764.875,711.1875C776.5125732421875,702.1474609375,784.8927001953125,689.8212890625,787,675C788.90966796875,649.5146484375,780.8887329101562,627.1300659179688,769,605C768.609130859375,604.2636108398438,768.2181396484375,603.5272216796875,767.8154296875,602.7685546875C762.8302001953125,593.4118041992188,757.60107421875,584.3961181640625,751.33251953125,575.82421875C749.7913818359375,573.7144775390625,748.2697143554688,571.5911865234375,746.74609375,569.46875C739.591552734375,559.5686645507812,732.1041259765625,550.1353149414062,724,541C722.770263671875,539.5838623046875,721.541015625,538.167236328125,720.3125,536.75C719.2105102539062,535.4981079101562,718.1063232421875,534.2481079101562,717,533C716.3748168945312,532.2935791015625,715.7496337890625,531.587158203125,715.10546875,530.859375C704.7474365234375,519.2522583007812,694.1002197265625,507.90045166015625,683,497C681.9989013671875,496.0010986328125,680.9984130859375,495.0015869140625,680,494C681.5137939453125,490.432373046875,683.6051025390625,488.1629638671875,686.3515625,485.453125C687.2023315429688,484.6087646484375,688.0531005859375,483.76446533203125,688.9296875,482.89453125C689.8191528320312,482.0218505859375,690.7086181640625,481.149169921875,691.625,480.25C692.522216796875,479.36181640625,693.4193725585938,478.47369384765625,694.34375,477.55859375C696.55810546875,475.3677978515625,698.7769165039062,473.181884765625,701,471C707.001708984375,475.93963623046875,712.4913330078125,481.33807373046875,717.97021484375,486.83984375C719.493408203125,488.36834716796875,721.021728515625,489.89141845703125,722.55078125,491.4140625C727.3779296875,496.23797607421875,732.102294921875,501.1087646484375,736.5419921875,506.296875C738.5921630859375,508.6917724609375,740.7359619140625,510.99700927734375,742.875,513.3125C747.31787109375,518.1956176757812,751.5758056640625,523.1836547851562,755.68505859375,528.3505859375C756.6184692382812,529.5214233398438,757.5568237304688,530.6883544921875,758.49853515625,531.8525390625C784.783447265625,564.3927001953125,807.1116943359375,600.7205810546875,819,641C819.3828125,642.2529296875,819.7657470703125,643.5059814453125,820.16015625,644.796875C826.4775390625,669.8311767578125,822.447265625,695.8181762695312,810,718C809.48046875,718.9297485351562,808.9610595703125,719.8594970703125,808.42578125,720.8173828125C801.5775146484375,732.989990234375,794.609375,744.9808959960938,786,756C785.5067749023438,756.633056640625,785.0135498046875,757.2661743164062,784.50537109375,757.91845703125C773.8736572265625,771.46728515625,762.2222900390625,783.859130859375,750.1024169921875,796.07177734375C749.009765625,797.1731567382812,747.91845703125,798.27587890625,746.8287353515625,799.380126953125C739.8873291015625,806.4025268554688,732.7387084960938,812.8461303710938,725,819C723.9099731445312,819.9231567382812,722.8253173828125,820.852783203125,721.75,821.79296875C703.7025146484375,837.5076293945312,683.7387084960938,851.093994140625,663,863C661.795654296875,863.6924438476562,661.795654296875,863.6924438476562,660.56689453125,864.39892578125C582.2466430664062,909.0796508789062,493.33575439453125,914.3497924804688,341.69873046875,886.72021484375C335.7127685546875,885.3168334960938,329.70068359375,884.2252197265625,323.64208984375,883.182861328125C312.421142578125,881.2382202148438,302.21533203125,879.1458129882812,292,874C290.963623046875,873.4882202148438,289.92724609375,872.9765014648438,288.859375,872.44921875C262.688232421875,858.390625,249.16455078125,831.7625122070312,238.261962890625,805.4112548828125C234.220703125,795.6597290039062,229.7828369140625,786.1779174804688,225.0772705078125,776.7313232421875C216.13134765625,758.7327880859375,207.6839599609375,740.5729370117188,200,722C199.55712890625,720.9300537109375,199.55712890625,720.9300537109375,199.10546875,719.8385009765625C182.72802734375,680.12646484375,171.61328125,639.8271484375,167,597C166.8431396484375,595.55126953125,166.8431396484375,595.55126953125,166.68310546875,594.0732421875C161.903564453125,542.2415161132812,167.7442626953125,489.37908935546875,184,440C184.2884521484375,439.104736328125,184.576904296875,438.20947265625,184.8740234375,437.287109375C196.43310546875,401.5982666015625,213.96923828125,367.92718505859375,236.515625,337.97216796875C237.9283447265625,336.0952453613281,239.32470703125,334.2071533203125,240.71875,332.31640625C258.5347900390625,308.3638610839844,284.030517578125,294.66259765625,313.321533203125,289.82470703125C334.405517578125,286.93731689453125,356.0634765625,288.9113464355469,377,292L377,292M237,398C232.879638671875,405.92327880859375,229.28076171875,413.8974609375,226.125,422.25C225.6986083984375,423.37261962890625,225.272216796875,424.4952392578125,224.8330078125,425.65185546875C190.427978515625,517.1034545898438,190.981689453125,611.693115234375,242.50341796875,735.32958984375C246.8563232421875,744.9007568359375,251.3111572265625,754.4238891601562,255.796630859375,763.9334716796875C257.10107421875,766.6988525390625,258.404052734375,769.4649047851562,259.706787109375,772.2310791015625C260.3585205078125,773.6142578125,261.0108642578125,774.9971923828125,261.663818359375,776.3797607421875C265.6004638671875,784.720703125,269.3568115234375,793.0968017578125,272.875,801.625C278.1959228515625,814.369140625,285.194580078125,825.1581420898438,295,835C295.549072265625,835.5723266601562,296.0982666015625,836.1447143554688,296.6640625,836.734375C310.8984375,850.3377685546875,335.087890625,852.39404296875,353.5,856.0625C356.7489013671875,856.7151489257812,359.997314453125,857.3693237304688,363.245849609375,858.0238647460938C365.340087890625,858.4454956054688,367.4346923828125,858.8660888671875,369.5294189453125,859.2855834960938C374.87646484375,860.3584594726562,380.210205078125,861.4706420898438,385.53515625,862.6484375C392.28521728515625,864.111572265625,399.0789794921875,865.2131958007812,405.904052734375,866.252685546875C407.9334716796875,866.5618896484375,409.9619140625,866.8771362304688,411.990234375,867.193359375C424.0838623046875,869.0671997070312,436.202880859375,870.7806396484375,448.375,872.0625C449.41912841796875,872.1795043945312,449.41912841796875,872.1795043945312,450.484375,872.298828125C464.6884765625,873.8064575195312,478.9097900390625,874.1865844726562,493.18310546875,874.185302734375C495.86572265625,874.1875,498.54791259765625,874.2057495117188,501.23046875,874.224609375C512.9443359375,874.262451171875,524.3838500976562,873.482177734375,536,872C536.8049926757812,871.8997802734375,537.6099853515625,871.799560546875,538.4393920898438,871.6962890625C603.8912353515625,863.4901123046875,670.358154296875,830.65625,716.317138671875,782.68212890625C718.0277099609375,780.9722900390625,719.808349609375,779.4088745117188,721.6484375,777.83984375C726.210205078125,773.873291015625,730.48828125,769.659423828125,734.75,765.375C735.4912109375,764.6376953125,736.232421875,763.9002685546875,736.99609375,763.140625C740.5552978515625,759.5750732421875,743.9676513671875,756.037841796875,747,752C746.3504028320312,752.115966796875,745.7008056640625,752.2318725585938,745.031494140625,752.351318359375C742.0423583984375,752.883056640625,739.0524291992188,753.4102783203125,736.0625,753.9375C735.0408935546875,754.119873046875,734.0193481445312,754.3023071289062,732.966796875,754.490234375C729.9810180664062,755.014892578125,726.9920654296875,755.5126953125,724,756C722.939453125,756.189453125,722.939453125,756.189453125,721.857421875,756.3828125C716.7914428710938,757.1409912109375,711.8682861328125,756.8790283203125,706.7734375,756.5703125C689.4869384765625,754.7711791992188,689.4869384765625,754.7711791992188,673.69140625,760.01953125C670.4573974609375,763.056396484375,667.859130859375,766.49072265625,665.3603515625,770.1455078125C663.3745727539062,772.8526000976562,660.958984375,774.7705078125,658.3125,776.8125C654.62646484375,779.7105712890625,651.04736328125,782.6834716796875,647.5,785.75C629.252197265625,800.9368896484375,608.375244140625,812.8190307617188,587,823C585.9242553710938,823.5257568359375,584.8485717773438,824.0515747070312,583.740234375,824.59326171875C574.695068359375,828.9664916992188,565.5433959960938,832.5011596679688,556,835.625C555.2879028320312,835.860595703125,554.5757446289062,836.0961303710938,553.842041015625,836.3388671875C541.3954467773438,840.440185546875,528.9335327148438,843.7960815429688,516,846C515.2764892578125,846.126953125,514.5530395507812,846.2539672851562,513.8076171875,846.384765625C505.6839599609375,847.7598266601562,497.65997314453125,848.1802368164062,489.4375,848.25C488.6038818359375,848.2593994140625,487.770263671875,848.2688598632812,486.911376953125,848.278564453125C481.8994140625,848.251708984375,477.7513427734375,847.607177734375,473,846C476.6051025390625,843.6796264648438,480.06439208984375,842.1498413085938,484.12890625,840.80078125C485.3189697265625,840.400390625,486.509033203125,839.9999389648438,487.735107421875,839.58740234375C488.35968017578125,839.3795776367188,488.9842529296875,839.1718139648438,489.6278076171875,838.9577026367188C502.26983642578125,834.7417602539062,514.71826171875,830.1795654296875,527,825C527.7258911132812,824.699462890625,528.4517822265625,824.3989868164062,529.19970703125,824.08935546875C565.6956787109375,808.920166015625,596.6907958984375,786.1019287109375,626.376953125,760.40283203125C627.8772583007812,759.1060791015625,629.3836669921875,757.81640625,630.890625,756.52734375C631.71044921875,755.8170776367188,632.5303344726562,755.1068115234375,633.375,754.375C634.4384765625,753.45849609375,634.4384765625,753.45849609375,635.5234375,752.5234375C637.2319946289062,751.1142578125,637.2319946289062,751.1142578125,637,749C636.347412109375,748.8245849609375,635.69482421875,748.649169921875,635.0224609375,748.468505859375C612.9114379882812,742.4915771484375,591.9227905273438,735.3099365234375,571,726C570.0892944335938,725.5987548828125,569.1785888671875,725.1975708007812,568.240234375,724.7841796875C555.9678955078125,719.3704223632812,544.005615234375,713.5565185546875,532.20556640625,707.1806640625C530.1203002929688,706.0643920898438,528.0234375,704.9759521484375,525.91796875,703.8984375C506.794677734375,694.0758056640625,488.68035888671875,682.6055908203125,470.8125,670.6875C470.125732421875,670.229736328125,469.43896484375,669.7720336914062,468.7314453125,669.3004150390625C459.359375,663.0415649414062,450.13165283203125,656.604248046875,441,650C440.24420166015625,649.454345703125,439.4884033203125,648.90869140625,438.709716796875,648.346435546875C417.05908203125,632.6568603515625,396.0450439453125,616.02197265625,376.25,598.03515625C374.2501220703125,596.2261962890625,372.227294921875,594.4510498046875,370.1875,592.6875C360.05078125,583.8334350585938,350.365234375,574.5303955078125,340.8681640625,564.99853515625C339.108642578125,563.2335205078125,337.3436279296875,561.4739990234375,335.578125,559.71484375C329.839599609375,553.9801025390625,324.2203369140625,548.2178344726562,319,542C318.0994873046875,540.9552001953125,317.198486328125,539.9109497070312,316.296875,538.8671875C296.363525390625,515.4485473632812,279.134033203125,490.77667236328125,264,464C263.425048828125,462.9945068359375,262.85009765625,461.98907470703125,262.2578125,460.953125C251.197021484375,441.22296142578125,242.815673828125,420.114013671875,238,398C237.669921875,398,237.3399658203125,398,237,398L237,398" style="fill: rgb(76, 46, 27);"/></g></g><g id="shape-9ea07b0b-e8cf-80e2-8007-01e22a693cba"><g class="fills" id="fills-9ea07b0b-e8cf-80e2-8007-01e22a693cba"><path d="M484,397C484.92376708984375,397.4392395019531,485.8475341796875,397.8785095214844,486.79931640625,398.3310546875C500.733642578125,405.0027160644531,514.0913696289062,412.4986572265625,527.35009765625,420.4208984375C530.2486572265625,422.148193359375,533.16162109375,423.848876953125,536.082763671875,425.53759765625C537.8551025390625,426.58978271484375,539.599609375,427.6885986328125,541.33837890625,428.79541015625C543.73193359375,430.29742431640625,546.0914916992188,431.50146484375,548.692138671875,432.6005859375C552.988525390625,434.65484619140625,556.456787109375,436.882568359375,559,441C561.4678955078125,450.16021728515625,560.4996337890625,460.1160888671875,560.1875,469.5C560.1163330078125,473.395751953125,560.0650024414062,477.29095458984375,560.0266723632812,481.1871337890625C559.9966430664062,483.602783203125,559.944580078125,486.01837158203125,559.8667602539062,488.4329833984375C559.6185302734375,499.263671875,561.6611328125,508.7265625,569,517C575.8675537109375,522.8513793945312,582.24365234375,526.236083984375,591.3974609375,526.274658203125C592.6460571289062,526.2841796875,593.8946533203125,526.293701171875,595.1810913085938,526.3035278320312C596.5321655273438,526.3032836914062,597.88330078125,526.3023681640625,599.234375,526.30078125C600.63671875,526.3046875,602.0391235351562,526.3090209960938,603.4414672851562,526.3137817382812C606.376708984375,526.3212280273438,609.3118286132812,526.3209228515625,612.2470703125,526.315673828125C615.9835205078125,526.3098754882812,619.719482421875,526.3267822265625,623.4558715820312,526.3500366210938C626.3523559570312,526.3648681640625,629.2487182617188,526.3656005859375,632.1452026367188,526.3624877929688C633.5213623046875,526.363037109375,634.8974609375,526.3681640625,636.2735595703125,526.3782958984375C644.3662109375,526.4306640625,651.4072265625,525.928466796875,659,523C664.916748046875,528.8096313476562,670.6354370117188,534.67822265625,676,541C676.7863159179688,541.897216796875,677.5726318359375,542.7943725585938,678.3828125,543.71875C690.3386840820312,557.4509887695312,701.1246337890625,572.0926513671875,710,588C710.3746337890625,588.6564331054688,710.749267578125,589.3129272460938,711.13525390625,589.9892578125C722.0819091796875,609.240966796875,731.0101318359375,630.2697143554688,727.5703125,652.81640625C725.6755981445312,659.5413818359375,721.489013671875,664.854248046875,715.5546875,668.50390625C712.7471923828125,669.8748779296875,709.9505004882812,670.9737548828125,707,672C706.1143798828125,672.3197021484375,705.2288208007812,672.639404296875,704.31640625,672.96875C665.9183959960938,684.222412109375,619.4579467773438,665.4115600585938,585,649C583.925048828125,648.4913330078125,582.8501586914062,647.9826049804688,581.74267578125,647.45849609375C563.8646240234375,638.930908203125,546.8727416992188,629.34326171875,530,619C528.4739990234375,618.0740966796875,526.947998046875,617.1483154296875,525.421875,616.22265625C499.2230224609375,600.2056884765625,474.5985107421875,581.6099853515625,451,562C450.49114990234375,561.5775146484375,449.9822998046875,561.155029296875,449.4580078125,560.7197265625C442.4522705078125,554.889404296875,435.623291015625,548.91064453125,428.94921875,542.703125C426.810302734375,540.7185668945312,424.61614990234375,538.8139038085938,422.3984375,536.91796875C417.2139892578125,532.3980712890625,412.378173828125,527.528076171875,407.527099609375,522.657470703125C405.9404296875,521.0654296875,404.348388671875,519.478759765625,402.755859375,517.892578125C397.29345703125,512.43408203125,391.993896484375,506.8948974609375,387,501C386.062744140625,499.9283447265625,385.12396240234375,498.85797119140625,384.18359375,497.7890625C363.145263671875,473.6396484375,342.9993896484375,446.83148193359375,333,416C332.685546875,415.1453857421875,332.3709716796875,414.29071044921875,332.046875,413.41015625C330.114990234375,407.5705261230469,329.670166015625,401.9183044433594,329.5625,395.8125C329.5401611328125,395.06396484375,329.517822265625,394.3154296875,329.494873046875,393.544189453125C329.52294921875,386.6809997558594,331.818359375,381.6180114746094,336.1875,376.375C337.1156005859375,375.59124755859375,338.043701171875,374.8074951171875,339,374C339.8701171875,373.2594299316406,339.8701171875,373.2594299316406,340.7578125,372.50390625C378.7091064453125,343.5714416503906,448.51904296875,380.0780334472656,484,397L484,397" style="fill: rgb(161, 224, 236);"/></g></g><g id="shape-9ea07b0b-e8cf-80e2-8007-01e22a69cdfe"><g class="fills" id="fills-9ea07b0b-e8cf-80e2-8007-01e22a69cdfe"><path d="M535,709C536.861572265625,709.8797607421875,538.7230834960938,710.7597045898438,540.584228515625,711.640380859375C542.2703857421875,712.4378662109375,543.9570922851562,713.2341918945312,545.644287109375,714.029541015625C550.2711181640625,716.2151489257812,554.882080078125,718.4265747070312,559.46875,720.6953125C584.220947265625,732.8795776367188,610.1444091796875,742.559814453125,637,749C635.6280517578125,752.162353515625,634.1434936523438,753.99365234375,631.5,756.1875C628.3915405273438,758.811279296875,625.3650512695312,761.4918823242188,622.375,764.25C616.7296142578125,769.3421020507812,610.7801513671875,773.9967041015625,604.7626953125,778.6357421875C603.0810546875,779.937255859375,601.4102783203125,781.25146484375,599.7421875,782.5703125C567.0473022460938,808.2938842773438,529.7245483398438,825.6130981445312,490.4765625,838.7734375C484.8994140625,840.6554565429688,479.43212890625,842.7349243164062,474,845C474,845.6600341796875,474,846.3200073242188,474,847C526.077880859375,857.1837158203125,587.87255859375,827.2545166015625,629.81689453125,799.10986328125C640.4190673828125,791.7386474609375,650.3989868164062,783.625732421875,660,775C660.542724609375,774.513671875,661.0853881835938,774.0274047851562,661.64453125,773.5263671875C667.9357299804688,768.2354125976562,667.9357299804688,768.2354125976562,673.30078125,762.12841796875C676.0773315429688,758.4860229492188,677.9771118164062,757.1449584960938,682.592529296875,756.490966796875C686.3058471679688,756.3579711914062,690.0054321289062,756.4771118164062,693.716064453125,756.6438598632812C697.768798828125,756.8224487304688,701.8230590820312,756.882080078125,705.87890625,756.9453125C706.6737060546875,756.9597778320312,707.4684448242188,756.9743041992188,708.2872924804688,756.9892578125C717.7125244140625,757.1148681640625,726.7696533203125,755.7943115234375,736,754C737.2220458984375,753.7872924804688,738.444091796875,753.5745849609375,739.703125,753.35546875C742.1420288085938,752.9295654296875,744.5706787109375,752.4761962890625,747,752C741.883544921875,758.1873168945312,736.3116455078125,763.8373413085938,730.625,769.5C729.717529296875,770.411376953125,728.8099975585938,771.32275390625,727.875,772.26171875C723.2865600585938,776.843505859375,718.6474609375,781.2939453125,713.72509765625,785.515625C711.3828125,787.5310668945312,709.134765625,789.642822265625,706.875,791.75C669.3771362304688,825.85302734375,621.3203735351562,854.27001953125,571.75,865.5625C570.7933959960938,865.783203125,570.7933959960938,865.783203125,569.8173828125,866.0083618164062C546.3131713867188,871.409912109375,523.1052856445312,874.18603515625,499.0087890625,874.13037109375C496.268798828125,874.125,493.529052734375,874.13037109375,490.7890625,874.13671875C474.4625244140625,874.1447143554688,458.40557861328125,873.2539672851562,442.1875,871.3125C441.11328125,871.1851806640625,441.11328125,871.1851806640625,440.017333984375,871.0552978515625C412.8731689453125,867.808837890625,386.025634765625,862.8182373046875,359.265380859375,857.2830810546875C354.49072265625,856.297607421875,349.708984375,855.3560791015625,344.921875,854.43359375C322.821533203125,850.126220703125,303.474609375,845.4830932617188,288,828C288,827.6699829101562,288,827.3399658203125,288,827C288.71728515625,826.9854125976562,289.4345703125,826.9708251953125,290.173583984375,826.955810546875C307.276611328125,826.5712280273438,324.068359375,825.4690551757812,341,823C341.773193359375,822.8892822265625,342.5462646484375,822.7786254882812,343.3427734375,822.66455078125C396.4766845703125,814.8308715820312,447.0341796875,791.5577392578125,488,757C488.98486328125,756.2008056640625,489.9697265625,755.4015502929688,490.984375,754.578125C506.98553466796875,741.4384765625,523.3474731445312,726.1982421875,535,709Z" style="fill: rgb(150, 76, 31);"/></g></g><g id="shape-9ea07b0b-e8cf-80e2-8007-01e22a6a9cbc"><g class="fills" id="fills-9ea07b0b-e8cf-80e2-8007-01e22a6a9cbc"><path d="M666.0625,869.25C667.4234008789062,869.4505615234375,668.7844848632812,869.6500244140625,670.145751953125,869.848388671875C729.7620849609375,878.8228149414062,729.7620849609375,878.8228149414062,744,892C745.4443359375,894.8886108398438,745.3768920898438,896.7964477539062,745,900C734.57373046875,914.8946533203125,705.6494750976562,917.85888671875,689.363037109375,920.743408203125C663.964599609375,925.0960693359375,638.1959228515625,927.68798828125,612.5390625,929.97265625C611.8458862304688,930.034912109375,611.1527099609375,930.09716796875,610.4385986328125,930.1612548828125C573.1019897460938,933.356689453125,535.639892578125,934.366455078125,498.1822509765625,934.2578125C495.25262451171875,934.249755859375,492.322998046875,934.245361328125,489.393310546875,934.2415771484375C449.17327880859375,934.181640625,409.071533203125,933.434326171875,369.043212890625,929.213623046875C366.940673828125,928.9937744140625,364.83740234375,928.781494140625,362.73388671875,928.57080078125C274.8751220703125,919.7183227539062,274.8751220703125,919.7183227539062,253,902C251.5556640625,899.1113891601562,251.623046875,897.2035522460938,252,894C258.082763671875,885.6868286132812,269.6767578125,882.9002685546875,279.125,880.25C280.157470703125,879.9470825195312,281.1900634765625,879.6441650390625,282.25390625,879.33203125C285.158203125,878.4996337890625,288.0687255859375,877.73095703125,291,877C292.039794921875,876.7205810546875,292.039794921875,876.7205810546875,293.1005859375,876.435546875C298.506591796875,875.3247680664062,302.61669921875,877.044677734375,307.70166015625,878.89990234375C313.5587158203125,880.8533935546875,319.6160888671875,881.7573852539062,325.6875,882.8125C328.544189453125,883.3243408203125,331.399169921875,883.8446044921875,334.25390625,884.3671875C334.98046875,884.4998168945312,335.7071533203125,884.6324462890625,336.455810546875,884.7691040039062C343.3701171875,886.0436401367188,350.2392578125,887.5050659179688,357.10888671875,888.999267578125C375.99267578125,893.104248046875,394.9639892578125,896.6763916015625,414,900C415.024169921875,900.1804809570312,416.04833984375,900.3609619140625,417.103515625,900.546875C487.3040771484375,912.6378173828125,583.8121337890625,912.8179321289062,645.198486328125,871.52099609375C652.1531372070312,866.8557739257812,658.0487670898438,867.959716796875,666.0625,869.25Z" style="fill: rgb(223, 221, 212);"/></g></g><g id="shape-9ea07b0b-e8cf-80e2-8007-01e22a6b91b6"><g class="fills" id="fills-9ea07b0b-e8cf-80e2-8007-01e22a6b91b6"><path d="M573.9296875,272.482421875C574.7012329101562,272.47540283203125,575.4727172851562,272.4684143066406,576.2676391601562,272.461181640625C578.8037719726562,272.44366455078125,581.3388061523438,272.4552001953125,583.875,272.46875C585.6456909179688,272.466064453125,587.4163208007812,272.462158203125,589.18701171875,272.4571533203125C592.8923950195312,272.4512634277344,596.597412109375,272.4598083496094,600.302734375,272.478515625C605.0441284179688,272.5013122558594,609.7846069335938,272.4881896972656,614.5260009765625,272.4642333984375C618.1806640625,272.4497375488281,621.8351440429688,272.4543762207031,625.4898071289062,272.4647216796875C627.2376708984375,272.4674072265625,628.9855346679688,272.4641418457031,630.7333374023438,272.454833984375C633.1795043945312,272.4446105957031,635.624267578125,272.460205078125,638.0703125,272.482421875C638.787353515625,272.4743347167969,639.5044555664062,272.4662170410156,640.2432250976562,272.4578857421875C645.274169921875,272.542236328125,648.1036376953125,273.87933349609375,652,277C655.944580078125,281.4886474609375,656.130615234375,285.2797546386719,656.1611328125,291.130126953125C656.1685791015625,292.2135925292969,656.1685791015625,292.2135925292969,656.1761474609375,293.3189697265625C656.1907958984375,295.708740234375,656.1976318359375,298.09844970703125,656.203125,300.48828125C656.2088623046875,302.151123046875,656.2146606445312,303.8139953613281,656.2203979492188,305.47686767578125C656.2308959960938,308.9646301269531,656.2367553710938,312.452392578125,656.240234375,315.940185546875C656.2457275390625,320.40234375,656.2697143554688,324.8642272949219,656.2982177734375,329.3262939453125C656.31689453125,332.7621765136719,656.322021484375,336.1979675292969,656.3235473632812,339.6339111328125C656.3265991210938,341.27850341796875,656.3345947265625,342.923095703125,656.3477783203125,344.567626953125C656.3648681640625,346.87255859375,656.3629150390625,349.1767272949219,656.3564453125,351.481689453125C656.3619384765625,353.4466857910156,656.3619384765625,353.4466857910156,656.3674926757812,355.45135498046875C655.903564453125,359.9311218261719,654.54931640625,363.30145263671875,651.5,366.64453125C646.486328125,370.54840087890625,642.9520874023438,371.151123046875,636.778076171875,371.1611328125C636.0460205078125,371.1661071777344,635.31396484375,371.17108154296875,634.5596923828125,371.1761779785156C632.137451171875,371.1907958984375,629.7152709960938,371.1976013183594,627.29296875,371.203125C625.607666015625,371.2088623046875,623.9224243164062,371.2146301269531,622.2371215820312,371.22039794921875C618.7022705078125,371.23089599609375,615.1674194335938,371.23675537109375,611.632568359375,371.240234375C607.10986328125,371.2457275390625,602.5874633789062,371.2697448730469,598.0648803710938,371.2982177734375C594.5826416015625,371.3168640136719,591.1005249023438,371.322021484375,587.6182861328125,371.3235778808594C585.9513549804688,371.32659912109375,584.284423828125,371.3345947265625,582.6175537109375,371.3477478027344C580.281494140625,371.3648681640625,577.9462280273438,371.3629150390625,575.610107421875,371.3564453125C574.9257202148438,371.36566162109375,574.2413940429688,371.3748779296875,573.5362548828125,371.3843688964844C568.3065185546875,371.339111328125,564.2188720703125,370.0713195800781,560.35546875,366.46484375C556.5917358398438,361.54302978515625,555.84619140625,358.8750915527344,555.822998046875,352.7998046875C555.81640625,352.0581359863281,555.8098754882812,351.3164367675781,555.8031005859375,350.55230712890625C555.7833251953125,348.0921630859375,555.7716674804688,345.632080078125,555.76171875,343.171875C555.7576293945312,342.3316955566406,555.7535400390625,341.49151611328125,555.7493896484375,340.6258544921875C555.728515625,336.177490234375,555.7142333984375,331.7291564941406,555.704833984375,327.28076171875C555.6937866210938,322.6895751953125,555.6593627929688,318.0988464355469,555.6196899414062,313.5078125C555.593505859375,309.9750061035156,555.5851440429688,306.44232177734375,555.58154296875,302.9093933105469C555.57666015625,301.21734619140625,555.5650634765625,299.5252990722656,555.5465087890625,297.8333435058594C555.5220947265625,295.4610900878906,555.5230712890625,293.090087890625,555.530029296875,290.7177734375C555.5172119140625,290.0224914550781,555.50439453125,289.3271789550781,555.4912109375,288.61083984375C555.54443359375,283.6043701171875,556.7818603515625,280.797119140625,560,277C564.5025634765625,273.1705322265625,568.180419921875,272.4175109863281,573.9296875,272.482421875L573.9296875,272.482421875" style="fill: rgb(65, 167, 219);"/></g></g><g id="shape-9ea07b0b-e8cf-80e2-8007-01e22a6c4fa3"><g class="fills" id="fills-9ea07b0b-e8cf-80e2-8007-01e22a6c4fa3"><path d="M719.75390625,76.50390625C721.1010131835938,76.50375366210938,722.4480590820312,76.50225830078125,723.795166015625,76.49949645996094C726.6102905273438,76.49810791015625,729.4249267578125,76.5106201171875,732.239990234375,76.533447265625C735.8402709960938,76.56185913085938,739.4396362304688,76.55908203125,743.0399780273438,76.54635620117188C745.8187866210938,76.53939819335938,748.5973510742188,76.54721069335938,751.3761596679688,76.55961608886719C753.346435546875,76.56629943847656,755.3167114257812,76.56199645996094,757.2869873046875,76.55751037597656C758.488525390625,76.5701904296875,759.6900634765625,76.5828857421875,760.927978515625,76.595947265625C761.982421875,76.60134887695312,763.036865234375,76.60675048828125,764.123291015625,76.61231994628906C768.7041015625,77.22966003417969,771.244140625,79.13916015625,774.25,82.5625C776.8634033203125,86.20260620117188,777.1314086914062,88.08050537109375,777.1611328125,92.531982421875C777.1707153320312,93.69046020507812,777.1803588867188,94.84893798828125,777.1902465820312,96.04252624511719C777.1945190429688,97.30079650878906,777.19873046875,98.55906677246094,777.203125,99.85546875C777.2088012695312,101.14559936523438,777.2145385742188,102.43572998046875,777.2203979492188,103.76496887207031C777.2308959960938,106.50128173828125,777.2367553710938,109.237548828125,777.240234375,111.973876953125C777.2457275390625,115.46633911132812,777.2697143554688,118.95841979980469,777.2982177734375,122.45077514648438C777.3214111328125,125.79399108886719,777.3233032226562,129.13717651367188,777.328125,132.48046875C777.3404541015625,133.72862243652344,777.3528442382812,134.97677612304688,777.3655395507812,136.2627410888672C777.3455810546875,144.06539916992188,777.3021240234375,149.55221557617188,771.697265625,155.404296875C766.4227905273438,158.43365478515625,759.7294921875,157.57147216796875,753.84375,157.53125C752.4542236328125,157.533935546875,751.064697265625,157.537841796875,749.6751708984375,157.5428466796875C746.7700805664062,157.54873657226562,743.865478515625,157.54022216796875,740.96044921875,157.521484375C737.248046875,157.49868774414062,733.5368041992188,157.5118408203125,729.824462890625,157.5357666015625C726.957275390625,157.55026245117188,724.09033203125,157.54559326171875,721.2230834960938,157.5352783203125C719.8548583984375,157.5325927734375,718.486572265625,157.53582763671875,717.1183471679688,157.545166015625C705.1416015625,157.60910034179688,705.1416015625,157.60910034179688,701.302734375,155.404296875C694.908935546875,148.7284698486328,695.5455322265625,141.41329956054688,695.56640625,132.62109375C695.5611572265625,131.33566284179688,695.555908203125,130.05023193359375,695.550537109375,128.72584533691406C695.5416259765625,126.01513671875,695.5439453125,123.30470275878906,695.553955078125,120.593994140625C695.5654907226562,117.13162231445312,695.545166015625,113.67027282714844,695.5160522460938,110.20803833007812C695.4932250976562,106.8873291015625,695.5001220703125,103.56686401367188,695.50390625,100.24609375C695.49267578125,99.00846862792969,695.4814453125,97.77084350585938,695.4698486328125,96.49571228027344C695.5582275390625,85.58984375,695.5582275390625,85.58984375,700,81C705.5966796875,75.51190185546875,712.399169921875,76.43974304199219,719.75390625,76.50390625Z" style="fill: rgb(66, 168, 219);"/></g></g><g id="shape-9ea07b0b-e8cf-80e2-8007-01e22a6d3ca8"><g class="fills" id="fills-9ea07b0b-e8cf-80e2-8007-01e22a6d3ca8"><path d="M594.888427734375,426.595947265625C596.0499267578125,426.583251953125,597.2113647460938,426.570556640625,598.4080810546875,426.5574951171875C599.6539916992188,426.5604248046875,600.89990234375,426.5633544921875,602.18359375,426.56640625C603.4718627929688,426.5611572265625,604.7601318359375,426.555908203125,606.08740234375,426.550537109375C608.81005859375,426.5416259765625,611.532470703125,426.54400634765625,614.255126953125,426.553955078125C617.7332763671875,426.5654296875,621.2103271484375,426.54522705078125,624.6883544921875,426.51605224609375C628.0201416015625,426.49322509765625,631.3516845703125,426.5001220703125,634.68359375,426.50390625C635.927490234375,426.49267578125,637.17138671875,426.4814453125,638.4530029296875,426.4698486328125C649.1829833984375,426.5562744140625,649.1829833984375,426.5562744140625,654,431C657.8460693359375,435.36578369140625,659.1206665039062,437.68719482421875,659.177001953125,443.4560546875C659.1962890625,445.1685791015625,659.1962890625,445.1685791015625,659.2158813476562,446.91571044921875C659.2232666015625,448.1552734375,659.2306518554688,449.394775390625,659.23828125,450.671875C659.246337890625,451.94219970703125,659.25439453125,453.2125244140625,659.2627563476562,454.52130126953125C659.276611328125,457.2147216796875,659.28759765625,459.9080810546875,659.295166015625,462.6015625C659.3062133789062,466.042724609375,659.340576171875,469.483154296875,659.38037109375,472.924072265625C659.412841796875,476.2149658203125,659.4172973632812,479.505859375,659.42578125,482.796875C659.4432983398438,484.0283203125,659.4608154296875,485.259765625,659.4788208007812,486.52850341796875C659.4518432617188,497.1693115234375,659.4518432617188,497.1693115234375,655,502C650.5589599609375,505.912353515625,648.229736328125,507.12158203125,642.3603515625,507.177001953125C641.1786499023438,507.1898193359375,639.9968872070312,507.20263671875,638.7793579101562,507.21588134765625C637.49609375,507.2232666015625,636.2127685546875,507.23065185546875,634.890625,507.23828125C632.9185791015625,507.2503662109375,632.9185791015625,507.2503662109375,630.9066772460938,507.26275634765625C628.1190795898438,507.27777099609375,625.33154296875,507.28759765625,622.5439453125,507.295166015625C618.9817504882812,507.30621337890625,615.4202270507812,507.340576171875,611.8582763671875,507.38037109375C608.452392578125,507.412841796875,605.046630859375,507.41729736328125,601.640625,507.42578125C600.3654174804688,507.44329833984375,599.0902709960938,507.4608154296875,597.7764282226562,507.47882080078125C587.8936157226562,507.45458984375,587.8936157226562,507.45458984375,584.3349609375,505.348388671875C580.0802001953125,501.06915283203125,578.6287841796875,496.88653564453125,578.580078125,490.922119140625C578.5641479492188,489.743896484375,578.5482788085938,488.56573486328125,578.5318603515625,487.351806640625C578.5316772460938,486.09228515625,578.5314331054688,484.83282470703125,578.53125,483.53515625C578.5236206054688,482.228515625,578.5160522460938,480.92181396484375,578.5081787109375,479.5755615234375C578.4947509765625,476.81597900390625,578.4931640625,474.05670166015625,578.4990234375,471.297119140625C578.5049438476562,467.7752685546875,578.4743041992188,464.2547607421875,578.4338989257812,460.733154296875C578.4017333984375,457.3546142578125,578.4061279296875,453.976318359375,578.40625,450.59765625C578.3898315429688,449.3402099609375,578.3734741210938,448.08270263671875,578.3565673828125,446.787109375C578.4139404296875,439.50323486328125,578.8206787109375,435.2955322265625,584,430C587.7413330078125,427.31890869140625,590.3084106445312,426.6202392578125,594.888427734375,426.595947265625L594.888427734375,426.595947265625" style="fill: rgb(65, 167, 219);"/></g></g><g id="shape-9ea07b0b-e8cf-80e2-8007-01e22a6de957"><g class="fills" id="fills-9ea07b0b-e8cf-80e2-8007-01e22a6de957"><path d="M732.43359375,213.56640625C733.5443115234375,213.5611572265625,734.6549682617188,213.555908203125,735.79931640625,213.550537109375C738.145263671875,213.54412841796875,740.4912109375,213.54541015625,742.837158203125,213.553955078125C746.4213256835938,213.56243896484375,750.00390625,213.53369140625,753.587890625,213.501953125C755.8698120117188,213.50033569335938,758.1516723632812,213.50091552734375,760.43359375,213.50390625C761.5025024414062,213.49267578125,762.5714111328125,213.4814453125,763.6727294921875,213.4698486328125C769.6104736328125,213.52532958984375,773.3934936523438,213.8525390625,778,218C780.7896118164062,221.10372924804688,781.3795166015625,223.07382202148438,781.404052734375,227.22412109375C781.416748046875,228.26556396484375,781.429443359375,229.30697631835938,781.4425048828125,230.37997436523438C781.4395751953125,231.49981689453125,781.4366455078125,232.61965942382812,781.43359375,233.7734375C781.4388427734375,234.929931640625,781.444091796875,236.08642578125,781.449462890625,237.27798461914062C781.4559326171875,239.72406005859375,781.45458984375,242.170166015625,781.446044921875,244.6162109375C781.4375610351562,248.35406494140625,781.4662475585938,252.09039306640625,781.498046875,255.828125C781.4996337890625,258.2057189941406,781.4990844726562,260.5833435058594,781.49609375,262.9609375C781.50732421875,264.07672119140625,781.5185546875,265.1925354003906,781.5301513671875,266.3421325683594C781.476318359375,272.3498229980469,781.3045043945312,276.4057922363281,777,281C772.3375244140625,285.2565612792969,766.3056640625,284.4676513671875,760.34765625,284.46875C759.2147827148438,284.47637939453125,758.0818481445312,284.4839782714844,756.9146728515625,284.4918212890625C754.5216674804688,284.50262451171875,752.1286010742188,284.5054931640625,749.735595703125,284.5009765625C746.0787963867188,284.5,742.424072265625,284.5416259765625,738.767578125,284.5859375C736.4401245117188,284.5911560058594,734.1126098632812,284.5938415527344,731.78515625,284.59375C730.6943969726562,284.6101379394531,729.6035766601562,284.62652587890625,728.479736328125,284.6434326171875C720.01318359375,284.5665283203125,720.01318359375,284.5665283203125,716.388427734375,281.712890625C712.9006958007812,277.7513427734375,711.7543334960938,275.1435241699219,711.70947265625,269.86767578125C711.6967163085938,268.84625244140625,711.6839599609375,267.8248596191406,711.6707763671875,266.7724914550781C711.6685791015625,265.6745300292969,711.6663818359375,264.5765380859375,711.6640625,263.4453125C711.6574096679688,262.3110046386719,711.6507568359375,261.17669677734375,711.6439208984375,260.0080261230469C711.6337890625,257.6090393066406,711.6290893554688,255.21002197265625,711.62939453125,252.81103515625C711.625,249.14569091796875,711.5886840820312,245.48153686523438,711.55078125,241.81640625C711.544921875,239.484375,711.5409545898438,237.15234375,711.5390625,234.8203125C711.5247192382812,233.72637939453125,711.5103149414062,232.63247680664062,711.4954833984375,231.50540161132812C711.53125,225.5372314453125,711.736328125,221.57183837890625,716,217C720.6423950195312,212.7852783203125,726.5127563476562,213.5501708984375,732.43359375,213.56640625Z" style="fill: rgb(64, 167, 219);"/></g></g><g id="shape-9ea07b0b-e8cf-80e2-8007-01e22a6e4d50"><g class="fills" id="fills-9ea07b0b-e8cf-80e2-8007-01e22a6e4d50"><path d="M583.927001953125,151.80712890625C585.42919921875,151.7830352783203,585.42919921875,151.7830352783203,586.9617309570312,151.75845336914062C591.5365600585938,151.71392822265625,596.1112670898438,151.67294311523438,600.686279296875,151.64990234375C603.0985107421875,151.63333129882812,605.5106201171875,151.6060333251953,607.922607421875,151.56787109375C611.403076171875,151.51309204101562,614.8824462890625,151.49122619628906,618.36328125,151.4765625C619.4384765625,151.45388793945312,620.513671875,151.4312286376953,621.6213989257812,151.40786743164062C629.9796752929688,151.43142700195312,629.9796752929688,151.43142700195312,633.602294921875,154.34521484375C636.89697265625,157.9931640625,638.2476196289062,159.97650146484375,638.29052734375,164.835205078125C638.3032836914062,165.816650390625,638.3160400390625,166.798095703125,638.3292236328125,167.80926513671875C638.3314208984375,168.86865234375,638.3336181640625,169.92803955078125,638.3359375,171.01953125C638.345947265625,172.65652465820312,638.345947265625,172.65652465820312,638.3560791015625,174.32659912109375C638.3662109375,176.63739013671875,638.3709106445312,178.94821166992188,638.37060546875,181.259033203125C638.375,184.78842163085938,638.4112548828125,188.3165283203125,638.44921875,191.845703125C638.455078125,194.09112548828125,638.4590454101562,196.33657836914062,638.4609375,198.58203125C638.4752807617188,199.63534545898438,638.4896850585938,200.68865966796875,638.5045166015625,201.77386474609375C638.4677734375,207.685302734375,638.1220092773438,211.40908813476562,634,216C630.9476928710938,218.72689819335938,629.0342407226562,219.37899780273438,624.95947265625,219.404052734375C623.9580688476562,219.416748046875,622.9566650390625,219.42941284179688,621.9249267578125,219.4425048828125C620.848876953125,219.43954467773438,619.7727661132812,219.43661499023438,618.6640625,219.43359375C616.9959106445312,219.44146728515625,616.9959106445312,219.44146728515625,615.2940673828125,219.449462890625C612.942138671875,219.45590209960938,610.5902099609375,219.45455932617188,608.23828125,219.446044921875C604.645263671875,219.43756103515625,601.0538330078125,219.46627807617188,597.4609375,219.498046875C595.1744995117188,219.49966430664062,592.8880004882812,219.49908447265625,590.6015625,219.49609375C589.529541015625,219.50732421875,588.4574584960938,219.5185546875,587.3529052734375,219.5301513671875C581.2898559570312,219.47369384765625,577.533447265625,219.19171142578125,573,215C571.0712280273438,211.89932250976562,570.736572265625,209.49124145507812,570.693603515625,205.86767578125C570.6776123046875,204.84625244140625,570.66162109375,203.82485961914062,570.6451416015625,202.77249145507812C570.6397705078125,201.67453002929688,570.6344604492188,200.5765380859375,570.62890625,199.4453125C570.6153564453125,197.74383544921875,570.6153564453125,197.74383544921875,570.6015625,196.00802612304688C570.5870361328125,193.60906982421875,570.5781860351562,191.21005249023438,570.574462890625,188.81103515625C570.5625610351562,185.14547729492188,570.5133666992188,181.48162841796875,570.462890625,177.81640625C570.4534301757812,175.484375,570.4461669921875,173.15234375,570.44140625,170.8203125C570.421875,169.72637939453125,570.40234375,168.63247680664062,570.3822021484375,167.50540161132812C570.4324340820312,159.00970458984375,570.4324340820312,159.00970458984375,573.347412109375,155.32373046875C576.8955078125,152.2155303955078,579.3733520507812,151.8735809326172,583.927001953125,151.80712890625Z" style="fill: rgb(65, 167, 219);"/></g></g><g id="shape-9ea07b0b-e8cf-80e2-8007-01e22a6ef7b5"><g class="fills" id="fills-9ea07b0b-e8cf-80e2-8007-01e22a6ef7b5"><path d="M257,456C260.4326171875,457.1441650390625,260.571044921875,457.5050048828125,262.1640625,460.54296875C262.5604248046875,461.280029296875,262.956787109375,462.0169677734375,263.365234375,462.7763671875C263.781005859375,463.572021484375,264.1966552734375,464.36767578125,264.625,465.1875C268.334716796875,472.2601318359375,268.334716796875,472.2601318359375,272.8671875,478.81640625C275.4486083984375,482.12677001953125,277.4691162109375,485.0614013671875,279,489C278.33642578125,493.459716796875,276.27783203125,496.9208984375,274.12060546875,500.79931640625C271.884033203125,505.1915283203125,270.3309326171875,509.86114501953125,268.6875,514.5C268.308349609375,515.5592651367188,267.9290771484375,516.6185913085938,267.538330078125,517.7099609375C258.1007080078125,544.44287109375,250.9969482421875,571.8402099609375,245.178955078125,599.567138671875C240.8060302734375,619.9332275390625,240.8060302734375,619.9332275390625,236,624C215.0640869140625,577.9645385742188,237.17041015625,507.9654541015625,253.474365234375,463.483642578125C255.849365234375,457.15069580078125,255.849365234375,457.15069580078125,257,456Z" style="fill: rgb(149, 75, 30);"/></g></g><g id="shape-9ea07b0b-e8cf-80e2-8007-01e22a6ef7b6"><g class="fills" id="fills-9ea07b0b-e8cf-80e2-8007-01e22a6ef7b6"><path d="M370,671C367.605712890625,714.896240234375,332.494140625,767.994873046875,302.67578125,798.78515625C299.8359375,801.1357421875,297.5428466796875,802.0818481445312,294,803C293.61474609375,793.4837646484375,294.3236083984375,785.1400756835938,297,776C297.2979736328125,774.9788208007812,297.2979736328125,774.9788208007812,297.60205078125,773.93701171875C300.959716796875,762.6517944335938,305.4130859375,752.3449096679688,311,742C311.3333740234375,741.3641357421875,311.666748046875,740.7283325195312,312.01025390625,740.0732421875C320.81884765625,723.2742919921875,331.796630859375,707.6905517578125,344.5234375,693.63232421875C346.0499267578125,691.94482421875,347.5562744140625,690.2406616210938,349.0625,688.53515625C364.71337890625,671,364.71337890625,671,370,671Z" style="fill: rgb(148, 75, 30);"/></g></g><g id="shape-9ea07b0b-e8cf-80e2-8007-01e22a6f4c12"><g class="fills" id="fills-9ea07b0b-e8cf-80e2-8007-01e22a6f4c12"><path d="M727.92041015625,348.64990234375C729.4664916992188,348.63336181640625,731.012451171875,348.60614013671875,732.55810546875,348.56787109375C734.7943725585938,348.5128479003906,737.02880859375,348.4911804199219,739.265625,348.4765625C740.2925415039062,348.44256591796875,740.2925415039062,348.44256591796875,741.3401489257812,348.4078674316406C746.9505004882812,348.43231201171875,749.20166015625,350.1822509765625,753,354C755.1373901367188,358.2747802734375,754.2269897460938,363.9473876953125,754.240234375,368.693603515625C754.2499389648438,370.794189453125,754.2809448242188,372.893798828125,754.3125,374.994140625C754.3190307617188,376.3359375,754.3242797851562,377.677734375,754.328125,379.01953125C754.3421630859375,380.8464050292969,754.3421630859375,380.8464050292969,754.3564453125,382.710205078125C753.8714599609375,387.1861877441406,752.3613891601562,389.5892333984375,749.277099609375,392.785400390625C746.08984375,394.4854736328125,743.0930786132812,394.4486999511719,739.56640625,394.43359375C738.8514404296875,394.4388427734375,738.136474609375,394.444091796875,737.39990234375,394.449462890625C735.8911743164062,394.45587158203125,734.3824462890625,394.45458984375,732.873779296875,394.446044921875C730.5731201171875,394.4375305175781,728.2750244140625,394.46630859375,725.974609375,394.498046875C724.5051879882812,394.4996643066406,723.0358276367188,394.49908447265625,721.56640625,394.49609375C720.8829345703125,394.50732421875,720.199462890625,394.5185546875,719.4952392578125,394.5301513671875C714.7393798828125,394.4612121582031,712.3438110351562,393.350830078125,709,390C707.5196533203125,387.039306640625,707.7962036132812,384.0103759765625,707.76171875,380.76171875C707.753662109375,380.0439453125,707.74560546875,379.326171875,707.7372436523438,378.58660888671875C707.7234497070312,377.06597900390625,707.7127075195312,375.5453186035156,707.704833984375,374.024658203125C707.6876220703125,371.70660400390625,707.6437377929688,369.38995361328125,707.599609375,367.072265625C707.5894775390625,365.59375,707.5809936523438,364.115234375,707.57421875,362.63671875C707.5567016601562,361.94696044921875,707.5391845703125,361.2572021484375,707.5211791992188,360.54656982421875C707.5426025390625,355.7550048828125,708.615478515625,353.36328125,712,350C716.4749145507812,347.7625427246094,722.9528198242188,348.6888122558594,727.92041015625,348.64990234375Z" style="fill: rgb(65, 167, 219);"/></g></g><g id="shape-9ea07b0b-e8cf-80e2-8007-01e22a6fb695"><g class="fills" id="fills-9ea07b0b-e8cf-80e2-8007-01e22a6fb695"><path d="M168,531C168.330078125,531,168.6600341796875,531,169,531C169.0811767578125,533.2493896484375,169.1392822265625,535.4996337890625,169.1875,537.75C169.2222900390625,539.0029907226562,169.257080078125,540.2559204101562,169.29296875,541.546875C168.988037109375,545.14111328125,168.4560546875,546.447265625,166,549C165.946044921875,546.5621948242188,165.9063720703125,544.1256103515625,165.875,541.6875C165.8582763671875,540.9971923828125,165.841552734375,540.306884765625,165.82421875,539.595703125C165.787841796875,535.8286743164062,165.856201171875,534.2156982421875,168,531Z" style="fill: rgb(84, 60, 44);"/></g></g><g id="shape-9ea07b0b-e8cf-80e2-8007-01e22a6ffb49"><g class="fills" id="fills-9ea07b0b-e8cf-80e2-8007-01e22a6ffb49"><path d="M321,289C326.785888671875,288.8952331542969,332.2930908203125,289.00750732421875,338,290C334.2958984375,292.37591552734375,331.0701904296875,292.20501708984375,326.75,292.125C325.4866943359375,292.1069641113281,324.223388671875,292.0888977050781,322.921875,292.0703125C321.9576416015625,292.047119140625,320.993408203125,292.0238952636719,320,292C320.3299560546875,291.010009765625,320.6600341796875,290.0199890136719,321,289Z" style="fill: rgb(88, 63, 46);"/></g></g><g id="shape-9ea07b0b-e8cf-80e2-8007-01e22a70b6d7"><g class="fills" id="fills-9ea07b0b-e8cf-80e2-8007-01e22a70b6d7"><path d="M374,598C377.477783203125,599.5155639648438,379.955810546875,601.5773315429688,382.75,604.125C383.9488525390625,605.211669921875,383.9488525390625,605.211669921875,385.171875,606.3203125C385.775146484375,606.8746337890625,386.37841796875,607.4288940429688,387,608C384.6666259765625,608,382.3333740234375,608,380,608C380,606.6799926757812,380,605.3599853515625,380,604C379.010009765625,603.6699829101562,378.02001953125,603.3400268554688,377,603C375.3125,600.4375,375.3125,600.4375,374,598Z" style="fill: rgb(199, 130, 71);"/></g></g><g id="shape-9ea07b0b-e8cf-80e2-8007-01e22a70d539"><g class="fills" id="fills-9ea07b0b-e8cf-80e2-8007-01e22a70d539"><path d="M271,795C273.15380859375,797.6220092773438,274.4007568359375,799.64404296875,275,803C275.6600341796875,803,276.320068359375,803,277,803C277.3299560546875,805.3099975585938,277.6600341796875,807.6199951171875,278,810C275.100830078125,808.5503540039062,274.686767578125,806.547607421875,273.375,803.625C272.7059326171875,802.1593627929688,272.7059326171875,802.1593627929688,272.0234375,800.6640625C271,798,271,798,271,795Z" style="fill: rgb(197, 126, 70);"/></g></g><g id="shape-9ea07b0b-e8cf-80e2-8007-01e22a710b7f"><g class="fills" id="fills-9ea07b0b-e8cf-80e2-8007-01e22a710b7f"><path d="M805,723C805.3300170898438,723.6599731445312,805.6599731445312,724.3200073242188,806,725C804.78515625,727.3828125,804.78515625,727.3828125,803.0625,730.125C802.49658203125,731.0350952148438,801.9307250976562,731.9451293945312,801.34765625,732.8828125C800.9029541015625,733.5814819335938,800.4581909179688,734.2801513671875,800,735C799.6699829101562,734.3400268554688,799.3400268554688,733.6799926757812,799,733C799.935791015625,730.6401977539062,800.9334716796875,728.3037109375,802,726C802.6599731445312,726,803.3200073242188,726,804,726C804.3300170898438,725.010009765625,804.6599731445312,724.02001953125,805,723Z" style="fill: rgb(49, 31, 22);"/></g></g><g id="shape-9ea07b0b-e8cf-80e2-8007-01e22a714916"><g class="fills" id="fills-9ea07b0b-e8cf-80e2-8007-01e22a714916"><path d="M815,633C815.989990234375,633.4949951171875,815.989990234375,633.4949951171875,817,634C817.4140625,636.06640625,817.4140625,636.06640625,817.625,638.5625C817.6997680664062,639.3887939453125,817.7745361328125,640.215087890625,817.8515625,641.06640625C817.925048828125,642.0235595703125,817.925048828125,642.0235595703125,818,643C817.3400268554688,643,816.6799926757812,643,816,643C815,636.375,815,636.375,815,633Z" style="fill: rgb(59, 38, 26);"/></g></g><g id="shape-9ea07b0b-e8cf-80e2-8007-01e22a71bf2b"><g class="fills" id="fills-9ea07b0b-e8cf-80e2-8007-01e22a71bf2b"><path d="M170,589C170,592.2999877929688,170,595.5999755859375,170,599C169.010009765625,598.3400268554688,168.02001953125,597.6799926757812,167,597C166.8125,593.375,166.8125,593.375,167,590C169,589,169,589,170,589Z" style="fill: rgb(86, 60, 43);"/></g></g><g id="shape-9ea07b0b-e8cf-80e2-8007-01e22a71bf2c"><g class="fills" id="fills-9ea07b0b-e8cf-80e2-8007-01e22a71bf2c"><path d="M270,403C270.989990234375,403,271.97998046875,403,273,403C273.625,405.8125,273.625,405.8125,274,409C273.010009765625,410.4849853515625,273.010009765625,410.4849853515625,272,412C271.3399658203125,409.0299987792969,270.679931640625,406.05999755859375,270,403Z" style="fill: rgb(81, 56, 39);"/></g></g><g id="shape-9ea07b0b-e8cf-80e2-8007-01e22a71d72f"><g class="fills" id="fills-9ea07b0b-e8cf-80e2-8007-01e22a71d72f"><path d="M597,894C593.8123779296875,896.1250610351562,591.73486328125,896.5020141601562,588,897C588,896.010009765625,588,895.02001953125,588,894C591.3253173828125,892.8915405273438,593.621826171875,893.1554565429688,597,894Z" style="fill: rgb(217, 213, 206);"/></g></g><g id="shape-9ea07b0b-e8cf-80e2-8007-01e22a7227ac"><g class="fills" id="fills-9ea07b0b-e8cf-80e2-8007-01e22a7227ac"><path d="M625,802C625.6599731445312,802.3300170898438,626.3200073242188,802.6599731445312,627,803C626.3400268554688,804.3200073242188,625.6799926757812,805.6400146484375,625,807C623.02001953125,807,621.0399780273438,807,619,807C620.9325561523438,804.9754028320312,622.631591796875,803.5789184570312,625,802Z" style="fill: rgb(161, 83, 31);"/></g></g><g id="shape-9ea07b0b-e8cf-80e2-8007-01e22a7249b8"><g class="fills" id="fills-9ea07b0b-e8cf-80e2-8007-01e22a7249b8"><path d="M783,690C783.75,691.75,783.75,691.75,784,694C782.0625,696.25,782.0625,696.25,780,698C779.6699829101562,697.3400268554688,779.3400268554688,696.6799926757812,779,696C780.3200073242188,694.02001953125,781.6400146484375,692.0399780273438,783,690Z" style="fill: rgb(57, 36, 25);"/></g></g><g id="shape-9ea07b0b-e8cf-80e2-8007-01e22a728449"><g class="fills" id="fills-9ea07b0b-e8cf-80e2-8007-01e22a728449"><path d="M200,524C200.330078125,524,200.6600341796875,524,201,524C201.3692626953125,530.5230712890625,201.3692626953125,530.5230712890625,199.5,532.9375C199.0050048828125,533.2881469726562,198.510009765625,533.6387329101562,198,534C198,531.3599853515625,198,528.719970703125,198,526C198.6600341796875,526,199.320068359375,526,200,526C200,525.3400268554688,200,524.6799926757812,200,524Z" style="fill: rgb(86, 53, 30);"/></g></g><g id="shape-9ea07b0b-e8cf-80e2-8007-01e22a72c0a4"><g class="fills" id="fills-9ea07b0b-e8cf-80e2-8007-01e22a72c0a4"><path d="M195,412C195.330078125,412,195.6600341796875,412,196,412C195.669921875,414.30999755859375,195.3399658203125,416.6199951171875,195,419C194.3399658203125,419,193.679931640625,419,193,419C192.669921875,419.6600341796875,192.3399658203125,420.32000732421875,192,421C192.498046875,417.26513671875,192.875,415.1876220703125,195,412Z" style="fill: rgb(55, 34, 21);"/></g></g><g id="shape-9ea07b0b-e8cf-80e2-8007-01e22a732cca"><g class="fills" id="fills-9ea07b0b-e8cf-80e2-8007-01e22a732cca"><path d="M377,320C377,320.6600036621094,377,321.32000732421875,377,322C373.3699951171875,321.6700134277344,369.739990234375,321.3399963378906,366,321C366,320.6700134277344,366,320.3399963378906,366,320C370.01806640625,319.1590270996094,373.01806640625,318.9459533691406,377,320Z" style="fill: rgb(73, 53, 41);"/></g></g><g id="shape-9ea07b0b-e8cf-80e2-8007-01e22a736158"><g class="fills" id="fills-9ea07b0b-e8cf-80e2-8007-01e22a736158"><path d="M216,452C217.1083984375,455.3253173828125,216.844482421875,457.621826171875,216,461C215.3399658203125,461,214.679931640625,461,214,461C214.875,454.25,214.875,454.25,216,452Z" style="fill: rgb(197, 127, 71);"/></g></g></g></svg>